<svg id="Group_358" data-name="Group 358" xmlns="http://www.w3.org/2000/svg" width="341.337" height="212.875" viewBox="0 0 341.337 212.875">
  <path id="Path_1213" data-name="Path 1213" d="M448.147,144.976l2.926-.524c.281-.051.56-.113.84-.166-11.274-7.248-14.74-22.588-7.742-34.264a23.762,23.762,0,0,1,23.084-11.606l-3.837,9.454,9.089-8.219a.451.451,0,0,1,.062.021c12.517,4.566,19.09,18.775,14.682,31.738h0c-.152.448-.333.876-.507,1.31a28.706,28.706,0,0,0,7.035-4.88c4.064-4.033,6.29-9.6,8.779-16.455,4.929-13.587,9.675-27.371,14.232-41.184A25.266,25.266,0,0,1,505.56,40.08c.244-.719.527-1.41.827-2.09q.113-.255.229-.506c.3-.651.626-1.29.979-1.9.058-.1.122-.194.181-.294q.462-.774.973-1.5c.126-.182.253-.364.384-.542.386-.523.786-1.032,1.208-1.518.141-.163.291-.315.435-.473q.486-.531,1-1.03c.18-.176.359-.352.544-.521.047-.043.091-.091.139-.134l.007.01a23.381,23.381,0,0,1,30.721-.715l-4.992,12.3,8.986-8.121a25.458,25.458,0,0,1,.888,29.307l.025.008c-.1.15-.21.286-.311.433q-.283.413-.581.811c-.256.341-.521.67-.792.994-.2.245-.4.492-.618.728-.311.344-.637.671-.965,1-.192.19-.375.389-.572.571q-.776.717-1.6,1.36c-.194.15-.4.283-.6.427-.388.282-.777.561-1.18.818-.25.16-.506.306-.761.457-.369.217-.741.428-1.12.625-.269.14-.54.273-.814.4-.39.184-.784.354-1.183.517-.268.108-.534.219-.8.318-.448.163-.9.305-1.359.44-.23.069-.457.148-.69.209-.685.181-1.378.335-2.079.453-.132.022-.266.031-.4.051-.581.087-1.165.158-1.754.2-.253.019-.508.021-.762.032-.476.019-.952.028-1.431.018-.279-.006-.559-.021-.839-.038q-.7-.041-1.4-.126c-.276-.033-.552-.066-.828-.109-.5-.079-1-.182-1.5-.294-.033-.008-.066-.012-.1-.02q-2.886,8.742-5.877,17.446a23.437,23.437,0,0,1,33.909,1.864q.469.54.908,1.109l-8.307,9.514,11.247-4.65a25.613,25.613,0,0,1,.962,18.944,24.743,24.743,0,0,1-3.052,6.115,23.5,23.5,0,0,1-33.478,5.952,25.022,25.022,0,0,1-9.921-16.865c-.211.585-.416,1.177-.627,1.761-2.2,6.049-4.928,13.576-10.414,19.019-3.718,3.689-8.294,6.029-12.683,8.008q-4.287,1.932-8.689,3.573a23.5,23.5,0,0,1-10.753,3.549,143.64,143.64,0,0,1-14.051,3.3l-2.951.527c-2.652.47-5.371.954-8.07,1.513.389.119.778.233,1.164.374A24.881,24.881,0,0,1,458.415,177.9l-18.5,5.881,16.74,2.753c-5,12.735-19.029,18.859-31.327,13.676A24.045,24.045,0,0,1,416.6,193.9q.255.884.512,1.766c.339,1.168.676,2.329,1,3.48,4.4,15.674,2.509,28-5.339,34.718l-4.258-5.339c7.638-6.535,5.268-20,3.177-27.445-.318-1.13-.649-2.271-.983-3.418-2.869-9.871-6.121-21.059-1.909-31.34C415.149,150.827,433.445,147.583,448.147,144.976Z" transform="translate(-215.928 -23.457)" fill="#f2f2f2"/>
  <path id="Path_1214" data-name="Path 1214" d="M442.725,235.875H313.11c-8.851,0-16.027-7.431-16.027-16.6h0v-61.5a6.689,6.689,0,0,1,1.982-4.772L367.748,85.58a14.415,14.415,0,0,1,20.339,0l65.485,64.287a17.482,17.482,0,0,1,5.179,12.474v56.937c0,9.166-7.175,16.6-16.026,16.6Z" transform="translate(-215.928 -23.457)" fill="#3f3d56"/>
  <path id="Path_1215" data-name="Path 1215" d="M297.083,158.788H457.4v67.065a9.854,9.854,0,0,1-9.677,10.022H306.761a9.854,9.854,0,0,1-9.678-10.022h0V158.788Z" transform="translate(-215.928 -23.457)" opacity="0.1" style="isolation: isolate"/>
  <path id="Path_1216" data-name="Path 1216" d="M296.915,154.776" transform="translate(-215.928 -23.457)" fill="none" stroke="#3f3d56" stroke-miterlimit="10" stroke-width="1"/>
  <path id="Path_1217" data-name="Path 1217" d="M326.952,105.943H428.546a8.979,8.979,0,0,1,8.818,9.132V220.29a8.979,8.979,0,0,1-8.818,9.132H326.952a8.979,8.979,0,0,1-8.818-9.132V115.075A8.979,8.979,0,0,1,326.952,105.943Z" transform="translate(-215.928 -23.457)"/>
  <path id="Path_1218" data-name="Path 1218" d="M437.364,161.561v67.861H318.134V161.561L377.749,191.4Z" transform="translate(-215.928 -23.457)" opacity="0.1" style="isolation: isolate"/>
  <path id="Path_1219" data-name="Path 1219" d="M377.749,195.239,301.363,157a3.053,3.053,0,0,0-4.139,1.493,3.3,3.3,0,0,0-.309,1.4v65.786a9.854,9.854,0,0,0,9.677,10.022H448.9a9.855,9.855,0,0,0,9.678-10.022h0V161.02A3.852,3.852,0,0,0,454.8,157.1a3.673,3.673,0,0,0-1.646.39Z" transform="translate(-215.928 -23.457)" fill="#3f3d56"/>
  <rect id="Rectangle_789" data-name="Rectangle 789" width="33.344" height="4.883" transform="translate(112.478 93.822)" fill="#f2f2f2"/>
  <rect id="Rectangle_790" data-name="Rectangle 790" width="99.021" height="2.79" transform="translate(109.784 111.611)" fill="#f2f2f2"/>
  <rect id="Rectangle_791" data-name="Rectangle 791" width="99.021" height="2.79" transform="translate(109.784 121.029)" fill="#f2f2f2"/>
  <rect id="Rectangle_792" data-name="Rectangle 792" width="99.021" height="2.79" transform="translate(109.784 130.447)" fill="#f2f2f2"/>
  <line id="Line_8" data-name="Line 8" x2="277.53" transform="translate(20.53 212.244)" fill="none" stroke="#3f3d56" stroke-miterlimit="10" stroke-width="1"/>
  <path id="Path_1220" data-name="Path 1220" d="M215.928,192.749c0,20.566,12.458,37.208,27.854,37.208" transform="translate(-215.928 -23.457)" fill="#46455b"/>
  <path id="Path_1221" data-name="Path 1221" d="M243.782,229.957c0-20.8,13.9-37.626,31.083-37.626" transform="translate(-215.928 -23.457)"/>
  <path id="Path_1222" data-name="Path 1222" d="M226.02,194.613c0,19.536,7.944,35.344,17.762,35.344" transform="translate(-215.928 -23.457)"/>
  <path id="Path_1223" data-name="Path 1223" d="M243.782,229.957c0-26.575,16.069-48.078,35.927-48.078" transform="translate(-215.928 -23.457)" fill="#46455b"/>
  <path id="Path_1224" data-name="Path 1224" d="M237.922,230.219s3.95-.126,5.141-1,6.076-1.926,6.371-.518,5.937,7,1.477,7.04-10.362-.72-11.55-1.469S237.922,230.219,237.922,230.219Z" transform="translate(-215.928 -23.457)" fill="#a8a8a8"/>
  <path id="Path_1225" data-name="Path 1225" d="M250.991,235.247c-4.46.037-10.363-.72-11.551-1.469-.9-.571-1.265-2.619-1.386-3.564l-.132,0s.25,3.3,1.439,4.049,7.09,1.506,11.55,1.469c1.287-.011,1.732-.485,1.708-1.188C252.44,234.974,251.949,235.239,250.991,235.247Z" transform="translate(-215.928 -23.457)" opacity="0.2" style="isolation: isolate"/>
  <path id="Path_1226" data-name="Path 1226" d="M458.333,80.228c-.2,1.868-1.578,3.372-2.088,5.176-.767,2.715.56,5.628,2.374,7.743a16.338,16.338,0,0,0,11.53,5.67,4.781,4.781,0,0,0,1.907-.215,4.1,4.1,0,0,0,1.45-1.027A9.759,9.759,0,0,0,475.9,92.2a29.672,29.672,0,0,0,.064-6.005,3.492,3.492,0,0,0-.214-1.211,3.1,3.1,0,0,0-.753-.958,17.548,17.548,0,0,0-3.23-2.43,3.721,3.721,0,0,1-1.353-1.073,3.548,3.548,0,0,1-.419-1.284l-.356-1.883a3.787,3.787,0,0,0-.525-1.527c-.63-.88-1.836-1-2.893-1.043l-3.875-.157a18.049,18.049,0,0,0-3.971-.162c-1.1.229-.733,1.277-.534,2.232A16.627,16.627,0,0,1,458.333,80.228Z" transform="translate(-215.928 -23.457)" fill="#a0616a"/>
  <path id="Path_1227" data-name="Path 1227" d="M458.333,80.228c-.2,1.868-1.578,3.372-2.088,5.176-.767,2.715.56,5.628,2.374,7.743a16.338,16.338,0,0,0,11.53,5.67,4.781,4.781,0,0,0,1.907-.215,4.1,4.1,0,0,0,1.45-1.027A9.759,9.759,0,0,0,475.9,92.2a29.672,29.672,0,0,0,.064-6.005,3.492,3.492,0,0,0-.214-1.211,3.1,3.1,0,0,0-.753-.958,17.548,17.548,0,0,0-3.23-2.43,3.721,3.721,0,0,1-1.353-1.073,3.548,3.548,0,0,1-.419-1.284l-.356-1.883a3.787,3.787,0,0,0-.525-1.527c-.63-.88-1.836-1-2.893-1.043l-3.875-.157a18.049,18.049,0,0,0-3.971-.162c-1.1.229-.733,1.277-.534,2.232A16.627,16.627,0,0,1,458.333,80.228Z" transform="translate(-215.928 -23.457)" opacity="0.1" style="isolation: isolate"/>
  <path id="Path_1228" data-name="Path 1228" d="M482.983,164.3q-.824,9.351-1.647,18.7c-.429,4.9-.867,9.829-1.71,14.67-.292,1.669-.633,3.328-1.037,4.974-1.126,4.568-2.759,9.033-3.286,13.717-.017.135-.03.273-.044.411a12.334,12.334,0,0,1-.563,3.043c-.264.715-.668,1.367-.954,2.074a13.68,13.68,0,0,0-.713,4.505,18.321,18.321,0,0,0-6.457-2.286,4.834,4.834,0,0,1-3.061-1.137c-.826-.936-.735-2.369-.6-3.627q.652-5.857,1.3-11.71a31.527,31.527,0,0,1,.823-4.973c.15-.543.33-1.077.513-1.611.253-.735.508-1.47.7-2.225a27.752,27.752,0,0,0,.577-3.708c.446-3.928.984-7.847,1.455-11.773l.025-.206a124.68,124.68,0,0,0,1.09-17.922c-.022-.887-.058-1.774-.114-2.664-.077-1.29-.191-1.973.84-2.78a19.187,19.187,0,0,1,3.943-2.1c.7-.316,8.426-3.156,8.607-2.533a16.125,16.125,0,0,1,.565,4.084A46.734,46.734,0,0,1,482.983,164.3Z" transform="translate(-215.928 -23.457)" fill="#605d82"/>
  <path id="Path_1229" data-name="Path 1229" d="M479.626,197.665c-.292,1.669-.633,3.328-1.037,4.974-1.126,4.568-2.759,9.033-3.286,13.717-.017.135-.03.273-.044.411-3.444-5.1-6.344-10.573-9.705-15.722.253-.735.508-1.47.7-2.225a27.762,27.762,0,0,0,.577-3.707c.446-3.929.984-7.848,1.455-11.774l.025-.206a12.582,12.582,0,0,0,.84,2.415c2.257,4.749,7.62,7.15,10.243,11.695Q479.513,197.455,479.626,197.665Z" transform="translate(-215.928 -23.457)" opacity="0.1" style="isolation: isolate"/>
  <path id="Path_1230" data-name="Path 1230" d="M451.682,155.9a91.39,91.39,0,0,0,1.291,11.347l1.212,7.762c.663,4.248,1.354,8.583,3.3,12.388a57.344,57.344,0,0,0,5.438,7.829c4.653,6.279,8.148,13.39,12.561,19.852,1.282,1.879,3.115,3.91,5.3,3.518,1.436-.258,2.48-1.5,3.609-2.451,1.331-1.126,2.936-1.95,3.983-3.361s1.253-3.757-.166-4.762a7.393,7.393,0,0,0-1.625-.688c-2.2-.866-3.623-3.091-4.529-5.341s-1.455-4.668-2.663-6.761c-2.622-4.545-7.985-6.946-10.243-11.7-1.264-2.661-1.385-5.728-1.481-8.692l-.247-7.556a5.688,5.688,0,0,1,.277-2.441c.863-2.012,3.47-2.2,5.581-2.454a18.63,18.63,0,0,0,6.841-2.235,7.22,7.22,0,0,0,3.054-2.81,9.315,9.315,0,0,0,.745-3.807l.731-13.693a8.865,8.865,0,0,0-.28-3.5c-1.007-2.773-4.388-3.68-7.246-3.547-5.319.246-10.228,2.615-15.242,4.215a37.5,37.5,0,0,1-3.779,1.021,29.561,29.561,0,0,0-3.56.511c-1.909.667-1.861,4.99-2.131,6.783A59.183,59.183,0,0,0,451.682,155.9Z" transform="translate(-215.928 -23.457)" fill="#605d82"/>
  <path id="Path_1231" data-name="Path 1231" d="M480.061,219.172a3.566,3.566,0,0,1,.744,1.885,66.547,66.547,0,0,1,1.053,11.4,1.928,1.928,0,0,0,.2,1.033,1.266,1.266,0,0,0,.518.431c1.356.669,2.929-.263,4.058-1.288,2.094-1.9,3.865-4.449,3.984-7.329a17.721,17.721,0,0,1,.076-2.222,9.42,9.42,0,0,1,1.333-2.978,25.565,25.565,0,0,0,2.205-5.118c.206-.671.343-1.516-.165-1.984a1.829,1.829,0,0,0-.6-.325l-6.123-2.354c-.53-.2-1.851,3.308-2.06,3.692a2.823,2.823,0,0,1-2.051,1.689c-1.05.222-2.3-.1-3.279.446C478.293,217.072,479.123,218.192,480.061,219.172Z" transform="translate(-215.928 -23.457)" fill="#535070"/>
  <path id="Path_1232" data-name="Path 1232" d="M470.613,221.339a1.945,1.945,0,0,0-.466-.612,2.054,2.054,0,0,0-.94-.33c-1.165-.205-2.547-.34-3.351.557-.755.841-.625,2.211-1.256,3.156-.2.3-.47.545-.643.861a3.353,3.353,0,0,0-.282,1.545c-.032,1.463-.065,2.929.033,4.389a6.3,6.3,0,0,0,1.019,3.465c1.186,1.538,3.325,1.76,5.224,1.859l1.537.081a2.893,2.893,0,0,0,1.26-.119,2.119,2.119,0,0,0,1.087-1.239c.8-2.06-.467-4.28-1.248-6.348C471.69,226.227,471.851,223.587,470.613,221.339Z" transform="translate(-215.928 -23.457)" fill="#535070"/>
  <path id="Path_1233" data-name="Path 1233" d="M457.888,69.7a1.352,1.352,0,0,1,.086-.614c.225-.412.813-.3,1.257-.184,1.784.466,3.664.044,5.5.153s3.906,1.06,4.276,2.926a13.7,13.7,0,0,0,3.391-3.608,4.426,4.426,0,0,0,.884-2.643c-.1-1.367-1.207-2.389-2.232-3.255L467.994,59.9a4.578,4.578,0,0,0-1.368-.9,6.571,6.571,0,0,0-2.221-.13c-2.225,0-4.6-1.047-6.575.006a7.205,7.205,0,0,0-2.048,1.929l-2.727,3.344a1.782,1.782,0,0,0-.436.766,3.493,3.493,0,0,0,.2,1.22c.129.747-.182,1.544.057,2.261.4,1.191,1.793,1.36,2.646,2.043.318.254.817,1.116,1.2,1.106C457.4,71.52,457.87,70.254,457.888,69.7Z" transform="translate(-215.928 -23.457)" fill="#3f3d56"/>
  <ellipse id="Ellipse_92" data-name="Ellipse 92" cx="8.734" cy="9.045" rx="8.734" ry="9.045" transform="translate(237.853 38.012)" fill="#a0616a"/>
  <path id="Path_1234" data-name="Path 1234" d="M464.561,90.311a4.239,4.239,0,0,0-4.119-2.936,1.216,1.216,0,0,1-.76-.1,1.083,1.083,0,0,1-.312-.4,16.089,16.089,0,0,1-1.273-3.117c-.14-.479-.33-1.044-.8-1.168a1.059,1.059,0,0,0-1.016.458,9.419,9.419,0,0,1-.727.946c-1.1,1.017-3.046.09-4.212,1.023-.19.152-.347.348-.547.486a2.493,2.493,0,0,1-.642.285,60.225,60.225,0,0,0-6.61,2.681c.776,4.837,1.57,9.758,3.388,14.286.865,2.154,1.846,4.264,2.538,6.485,1.535,4.919,1.6,10.183,1.621,15.353.011,3.538-.006,7.152-1.111,10.5a10.2,10.2,0,0,0-.624,2.307,2.433,2.433,0,0,0,.782,2.15,2.609,2.609,0,0,0,1.206.439,15.109,15.109,0,0,0,5.732-.69,153.256,153.256,0,0,1,15.356-2.6l8.622-1.159a4.862,4.862,0,0,0,1.784-.477c1.578-.9,1.727-3.353.748-4.915-.47-.749-1.133-1.364-1.528-2.158a2.058,2.058,0,0,1,.252-2.454c1.382-1.119.969-3.195,1.035-5.01q.277-7.614-.075-15.234a31.427,31.427,0,0,1-.048-3.16,28.791,28.791,0,0,1,.951-5.272l2.62-10.683a5.362,5.362,0,0,0-3.237-2.154c-1.241-.322-2.534-.417-3.757-.81-2.5-.8-4.734-2.843-7.35-2.653a1.3,1.3,0,0,0-.569.144c-.59.346-.5,1.226-.534,1.928a5.338,5.338,0,0,1-2.4,3.756,42.857,42.857,0,0,0-3.723,2.608A1.742,1.742,0,0,0,464.561,90.311Z" transform="translate(-215.928 -23.457)" fill="#3f3d56"/>
  <path id="Path_1235" data-name="Path 1235" d="M429.954,100.444a10.185,10.185,0,0,1-1.837.979,5.969,5.969,0,0,0-1.76.885,2.838,2.838,0,0,0-.612.783,3.549,3.549,0,0,0,1.277,4.743,3.27,3.27,0,0,0,1.824.445,6.6,6.6,0,0,0,2.293-.708l6.16-2.765a4.864,4.864,0,0,0,2.662-2.076.5.5,0,0,0,.06-.33.539.539,0,0,0-.253-.275,13.982,13.982,0,0,1-3.587-3.5c-.253-.356-.562-1.195-.92-1.408C433.957,96.437,431,99.743,429.954,100.444Z" transform="translate(-215.928 -23.457)" fill="#a0616a"/>
  <path id="Path_1236" data-name="Path 1236" d="M495.809,98.176l2.272,2.687c.487.576.975,1.154,1.42,1.767a20.9,20.9,0,0,1,2.6,5.075,9.144,9.144,0,0,1,.731,4.195,10.6,10.6,0,0,1-.568,2.134,27.171,27.171,0,0,1-1.544,3.849,21.9,21.9,0,0,1-1.736,2.695,62.429,62.429,0,0,1-5.757,6.82,7.887,7.887,0,0,0-1.44,3.159,13.182,13.182,0,0,1-3.542,5,9.963,9.963,0,0,1-1.52,1.355,4.832,4.832,0,0,1-2.768.816,2.953,2.953,0,0,1-1.246-.267,3.358,3.358,0,0,1-1.583-2.779,6.1,6.1,0,0,1,.478-2.972c1.3-2.99,4.65-4.286,7.015-6.467a23.441,23.441,0,0,0,3.494-4.476,15.57,15.57,0,0,0,1.767-3.208c.529-1.459.323-3.188.785-4.672.2-.627.542-1.193.751-1.816a2.184,2.184,0,0,0-.1-1.9,2.678,2.678,0,0,0-1.028-.779c-1.511-.795-3.2-1.817-3.493-3.546a3.9,3.9,0,0,1,.676-2.709,11.147,11.147,0,0,1,1.906-2.068C494.037,99.462,495.148,98.781,495.809,98.176Z" transform="translate(-215.928 -23.457)" fill="#a0616a"/>
  <path id="Path_1237" data-name="Path 1237" d="M428.5,104.195a4.334,4.334,0,0,0-1.711-2.112,3.051,3.051,0,0,0-2.488-.011,9.278,9.278,0,0,0-2.184,1.367l-1.957,1.495a4.886,4.886,0,0,0-1.163,1.111,4.815,4.815,0,0,0-.605,1.72,12.738,12.738,0,0,0-.308,4.254,12.242,12.242,0,0,0,3.107,6.023c.915,1.087,2.045,2.185,3.438,2.231a1.56,1.56,0,0,0,1.519-.792,2.017,2.017,0,0,0,.136-.705,16.179,16.179,0,0,0-1.758-7.364,4.842,4.842,0,0,1-.566-1.979.556.556,0,0,1,.083-.331.534.534,0,0,1,.334-.169c1.406-.288,3.828.843,4.814-.774C429.826,107.111,428.951,105.145,428.5,104.195Z" transform="translate(-215.928 -23.457)" fill="#a0616a"/>
  <path id="Path_1238" data-name="Path 1238" d="M457.43,66.858a1.353,1.353,0,0,1,.086-.614c.225-.412.813-.3,1.257-.184,1.784.465,3.664.044,5.5.153s3.906,1.059,4.276,2.926a13.69,13.69,0,0,0,3.391-3.609,4.425,4.425,0,0,0,.884-2.642c-.1-1.367-1.207-2.389-2.232-3.256l-3.056-2.583a4.578,4.578,0,0,0-1.368-.9,6.571,6.571,0,0,0-2.221-.13c-2.225,0-4.6-1.047-6.575.006a7.205,7.205,0,0,0-2.048,1.929L452.6,61.3a1.784,1.784,0,0,0-.436.765,3.5,3.5,0,0,0,.195,1.221c.129.747-.182,1.544.057,2.261.4,1.191,1.793,1.36,2.646,2.042.318.255.817,1.117,1.2,1.107C456.939,68.674,457.412,67.408,457.43,66.858Z" transform="translate(-215.928 -23.457)" fill="#3f3d56"/>
  <path id="Path_1239" data-name="Path 1239" d="M438.879,91.646a3.626,3.626,0,0,0-.914.881c-.32.5-.385,1.135-.66,1.664-.589,1.133-1.966,1.536-2.824,2.465a.928.928,0,0,0-.272.483,1.1,1.1,0,0,0,.231.694l4.141,6.743c1.379.125,2.7-.769,4.082-.651A3.942,3.942,0,0,0,444.2,104a4.367,4.367,0,0,0,.986-.624c.823-.539,1.919-.6,2.61-1.313a3.8,3.8,0,0,0,.739-2.718,11.344,11.344,0,0,0-.246-2.5c-.61-2.588-2.522-4.574-3.72-6.867-.583-1.116-.9-1.77-2.135-1S440.047,90.761,438.879,91.646Z" transform="translate(-215.928 -23.457)" fill="#3f3d56"/>
  <path id="Path_1240" data-name="Path 1240" d="M489.179,88.236a9.811,9.811,0,0,1,2.083,1.89c.631.843.989,1.874,1.6,2.736a30.1,30.1,0,0,0,2.053,2.251,17.5,17.5,0,0,1,2.367,4,58.988,58.988,0,0,1-5.357,6.27,1.722,1.722,0,0,1-.813.554,1.291,1.291,0,0,1-1.15-.485c-.3-.324-.51-.724-.8-1.061a4.042,4.042,0,0,0-2.532-1.268,16.866,16.866,0,0,0-2.869-.041,1.1,1.1,0,0,1-.613-.106,1.054,1.054,0,0,1-.334-.4c-1.122-1.977-.761-4.458-.365-6.713l.908-5.175a11.935,11.935,0,0,1,.755-2.876c.344-.761,1.113-2.051,2.058-1.823S488.377,87.639,489.179,88.236Z" transform="translate(-215.928 -23.457)" fill="#3f3d56"/>
  <ellipse id="Ellipse_93" data-name="Ellipse 93" cx="13.809" cy="14.327" rx="13.809" ry="14.327" transform="translate(93.28 70.103)" fill="#fff"/>
  <path id="Path_1241" data-name="Path 1241" d="M323.018,91.118c-9.115,0-16.5,7.653-16.5,17.092s7.389,17.092,16.5,17.092,16.5-7.652,16.5-17.092C339.494,98.782,332.121,91.146,323.018,91.118Zm-3.388,26.205-8.459-8.76,2.373-2.457,6.093,6.311L332.5,99.1l2.373,2.457L319.63,117.323Z" transform="translate(-215.928 -23.457)" fill="#57b894"/>
</svg>
